<?xml version="1.0" standalone="no"?><!DOCTYPE svg PUBLIC "-//W3C//DTD SVG 1.1//EN" "http://www.w3.org/Graphics/SVG/1.1/DTD/svg11.dtd"><svg viewBox="0 0 380.9 85.1" fill="" version="1.1" xmlns="http://www.w3.org/2000/svg" xmlns:xlink="http://www.w3.org/1999/xlink" style="block-size:63.9236px;height:63.9236px;inline-size:286.163px;perspective-origin:143.073px 31.9618px;transform-origin:143.082px 31.9618px;width:286.163px;"><path d="M118.9 13.5c-1.4-5.2-5.5-9.3-10.7-10.7C98.7.3 60.7.3 60.7.3s-38 0-47.5 2.5C8 4.2 3.9 8.3 2.5 13.5 0 23 0 42.7 0 42.7s0 19.8 2.5 29.2c1.4 5.2 5.5 9.3 10.7 10.7 9.5 2.5 47.5 2.5 47.5 2.5s38 0 47.5-2.5c5.2-1.4 9.3-5.5 10.7-10.7 2.5-9.5 2.5-29.2 2.5-29.2s0-19.7-2.5-29.2z" fill="#FF0000" style="block-size:auto;d:path(&quot;M 118.9 13.5 C 117.5 8.3 113.4 4.2 108.2 2.8 C 98.7 0.3 60.7 0.3 60.7 0.3 S 22.7 0.3 13.2 2.8 C 8 4.2 3.9 8.3 2.5 13.5 C 0 23 0 42.7 0 42.7 S 0 62.5 2.5 71.9 C 3.9 77.1 8 81.2 13.2 82.6 C 22.7 85.1 60.7 85.1 60.7 85.1 S 98.7 85.1 108.2 82.6 C 113.4 81.2 117.5 77.1 118.9 71.9 C 121.4 62.4 121.4 42.7 121.4 42.7 S 121.4 23 118.9 13.5 Z&quot;);fill:rgb(255, 0, 0);height:auto;inline-size:auto;overflow-x:visible;overflow-y:visible;perspective-origin:0px 0px;transform-origin:0px 0px;width:auto;"/><path fill="#FFF" d="M48.5 61l31.6-18.2-31.6-18.3z" style="block-size:auto;d:path(&quot;M 48.5 61 L 80.1 42.8 L 48.5 24.5 Z&quot;);fill:rgb(255, 255, 255);height:auto;inline-size:auto;overflow-x:visible;overflow-y:visible;perspective-origin:0px 0px;transform-origin:0px 0px;width:auto;"/><path d="M147.1 55.5L133.5 6.2h11.9l4.8 22.3c1.2 5.5 2.1 10.2 2.7 14.1h.3c.4-2.8 1.3-7.4 2.7-14l5-22.4h11.9L159 55.5v23.7h-11.8l-.1-23.7zm29.2 22.1c-2.4-1.6-4.1-4.1-5.1-7.6-1-3.4-1.5-8-1.5-13.6v-7.7c0-5.7.6-10.3 1.7-13.8 1.2-3.5 3-6 5.4-7.6 2.5-1.6 5.7-2.4 9.7-2.4 3.9 0 7.1.8 9.5 2.4s4.1 4.2 5.2 7.6 1.7 8 1.7 13.8v7.7c0 5.7-.5 10.2-1.6 13.7-1.1 3.4-2.8 6-5.2 7.6-2.4 1.6-5.7 2.4-9.8 2.4-4.3-.1-7.6-.9-10-2.5zm13.5-8.3c.7-1.7 1-4.6 1-8.5V44.2c0-3.8-.3-6.6-1-8.4s-1.8-2.6-3.5-2.6c-1.6 0-2.8.9-3.4 2.6-.7 1.8-1 4.6-1 8.4v16.6c0 3.9.3 6.8 1 8.5.6 1.7 1.8 2.6 3.5 2.6 1.5 0 2.7-.9 3.4-2.6zm51.7-43.4v53.3h-9.4l-1-6.5h-.3c-2.5 4.9-6.4 7.4-11.5 7.4-3.5 0-6.1-1.2-7.8-3.5-1.7-2.3-2.5-5.9-2.5-10.9V25.9h12V65c0 2.4.3 4.1.8 5.1s1.4 1.5 2.6 1.5c1 0 2-.3 3-1 1-.6 1.7-1.4 2.1-2.4V25.9h12z" style="block-size:auto;d:path(&quot;M 147.1 55.5 L 133.5 6.2 H 145.4 L 150.2 28.5 C 151.4 34 152.3 38.7 152.9 42.6 H 153.2 C 153.6 39.8 154.5 35.2 155.9 28.6 L 160.9 6.2 H 172.8 L 159 55.5 V 79.2 H 147.2 L 147.1 55.5 Z M 176.3 77.6 C 173.9 76 172.2 73.5 171.2 70 C 170.2 66.6 169.7 62 169.7 56.4 V 48.7 C 169.7 43 170.3 38.4 171.4 34.9 C 172.6 31.4 174.4 28.9 176.8 27.3 C 179.3 25.7 182.5 24.9 186.5 24.9 C 190.4 24.9 193.6 25.7 196 27.3 S 200.1 31.5 201.2 34.9 S 202.9 42.9 202.9 48.7 V 56.4 C 202.9 62.1 202.4 66.6 201.3 70.1 C 200.2 73.5 198.5 76.1 196.1 77.7 C 193.7 79.3 190.4 80.1 186.3 80.1 C 182 80 178.7 79.2 176.3 77.6 Z M 189.8 69.3 C 190.5 67.6 190.8 64.7 190.8 60.8 V 44.2 C 190.8 40.4 190.5 37.6 189.8 35.8 S 188 33.2 186.3 33.2 C 184.7 33.2 183.5 34.1 182.9 35.8 C 182.2 37.6 181.9 40.4 181.9 44.2 V 60.8 C 181.9 64.7 182.2 67.6 182.9 69.3 C 183.5 71 184.7 71.9 186.4 71.9 C 187.9 71.9 189.1 71 189.8 69.3 Z M 241.5 25.9 V 79.2 H 232.1 L 231.1 72.7 H 230.8 C 228.3 77.6 224.4 80.1 219.3 80.1 C 215.8 80.1 213.2 78.9 211.5 76.6 C 209.8 74.3 209 70.7 209 65.7 V 25.9 H 221 V 65 C 221 67.4 221.3 69.1 221.8 70.1 S 223.2 71.6 224.4 71.6 C 225.4 71.6 226.4 71.3 227.4 70.6 C 228.4 70 229.1 69.2 229.5 68.2 V 25.9 H 241.5 Z&quot;);height:auto;inline-size:auto;overflow-x:visible;overflow-y:visible;perspective-origin:0px 0px;transform-origin:0px 0px;width:auto;"/><path d="M274.1 15.9h-11.9v63.3h-11.7V16h-11.9V6.4h35.5v9.5z" style="block-size:auto;d:path(&quot;M 274.1 15.9 H 262.2 V 79.2 H 250.5 V 16 H 238.6 V 6.4 H 274.1 V 15.9 Z&quot;);height:auto;inline-size:auto;overflow-x:visible;overflow-y:visible;perspective-origin:0px 0px;transform-origin:0px 0px;width:auto;"/><path d="M303 25.9v53.3h-9.4l-1-6.5h-.3c-2.5 4.9-6.4 7.4-11.5 7.4-3.5 0-6.1-1.2-7.8-3.5-1.7-2.3-2.5-5.9-2.5-10.9V25.9h12V65c0 2.4.3 4.1.8 5.1s1.4 1.5 2.6 1.5c1 0 2-.3 3-1 1-.6 1.7-1.4 2.1-2.4V25.9h12zm39.7 8.5c-.7-3.4-1.9-5.8-3.5-7.3s-3.9-2.3-6.7-2.3c-2.2 0-4.3.6-6.2 1.9-1.9 1.2-3.4 2.9-4.4 4.9h-.1V3.5h-11.6v75.7h9.9l1.2-5h.3c.9 1.8 2.3 3.2 4.2 4.3 1.9 1 3.9 1.6 6.2 1.6 4.1 0 7-1.9 8.9-5.6 1.9-3.7 2.9-9.6 2.9-17.5v-8.4c0-6.2-.4-10.8-1.1-14.2zm-11 21.7c0 3.9-.2 6.9-.5 9.1-.3 2.2-.9 3.8-1.6 4.7-.8.9-1.8 1.4-3 1.4-1 0-1.9-.2-2.7-.7-.8-.5-1.5-1.2-2-2.1V38.3c.4-1.4 1.1-2.6 2.1-3.6 1-.9 2.1-1.4 3.2-1.4 1.2 0 2.2.5 2.8 1.4.7 1 1.1 2.6 1.4 4.8.3 2.3.4 5.5.4 9.6l-.1 7zm29.1.4v2.7c0 3.4.1 6 .3 7.7.2 1.7.6 3 1.3 3.7.6.8 1.6 1.2 3 1.2 1.8 0 3-.7 3.7-2.1.7-1.4 1-3.7 1.1-7l10.3.6c.1.5.1 1.1.1 1.9 0 4.9-1.3 8.6-4 11s-6.5 3.6-11.4 3.6c-5.9 0-10-1.9-12.4-5.6-2.4-3.7-3.6-9.4-3.6-17.2v-9.3c0-8 1.2-13.8 3.7-17.5s6.7-5.5 12.6-5.5c4.1 0 7.3.8 9.5 2.3s3.7 3.9 4.6 7c.9 3.2 1.3 7.6 1.3 13.2v9.1h-20.1v.2zm1.5-22.4c-.6.8-1 2-1.2 3.7s-.3 4.3-.3 7.8v3.8h8.8v-3.8c0-3.4-.1-6-.3-7.8-.2-1.8-.7-3-1.3-3.7-.6-.7-1.6-1.1-2.8-1.1-1.3 0-2.3.4-2.9 1.1z" style="block-size:auto;d:path(&quot;M 303 25.9 V 79.2 H 293.6 L 292.6 72.7 H 292.3 C 289.8 77.6 285.9 80.1 280.8 80.1 C 277.3 80.1 274.7 78.9 273 76.6 C 271.3 74.3 270.5 70.7 270.5 65.7 V 25.9 H 282.5 V 65 C 282.5 67.4 282.8 69.1 283.3 70.1 S 284.7 71.6 285.9 71.6 C 286.9 71.6 287.9 71.3 288.9 70.6 C 289.9 70 290.6 69.2 291 68.2 V 25.9 H 303 Z M 342.7 34.4 C 342 31 340.8 28.6 339.2 27.1 S 335.3 24.8 332.5 24.8 C 330.3 24.8 328.2 25.4 326.3 26.7 C 324.4 27.9 322.9 29.6 321.9 31.6 H 321.8 V 3.5 H 310.2 V 79.2 H 320.1 L 321.3 74.2 H 321.6 C 322.5 76 323.9 77.4 325.8 78.5 C 327.7 79.5 329.7 80.1 332 80.1 C 336.1 80.1 339 78.2 340.9 74.5 C 342.8 70.8 343.8 64.9 343.8 57 V 48.6 C 343.8 42.4 343.4 37.8 342.7 34.4 Z M 331.7 56.1 C 331.7 60 331.5 63 331.2 65.2 C 330.9 67.4 330.3 69 329.6 69.9 C 328.8 70.8 327.8 71.3 326.6 71.3 C 325.6 71.3 324.7 71.1 323.9 70.6 C 323.1 70.1 322.4 69.4 321.9 68.5 V 38.3 C 322.3 36.9 323 35.7 324 34.7 C 325 33.8 326.1 33.3 327.2 33.3 C 328.4 33.3 329.4 33.8 330 34.7 C 330.7 35.7 331.1 37.3 331.4 39.5 C 331.7 41.8 331.8 45 331.8 49.1 L 331.7 56.1 Z M 360.8 56.5 V 59.2 C 360.8 62.6 360.9 65.2 361.1 66.9 C 361.3 68.6 361.7 69.9 362.4 70.6 C 363 71.4 364 71.8 365.4 71.8 C 367.2 71.8 368.4 71.1 369.1 69.7 C 369.8 68.3 370.1 66 370.2 62.7 L 380.5 63.3 C 380.6 63.8 380.6 64.4 380.6 65.2 C 380.6 70.1 379.3 73.8 376.6 76.2 S 370.1 79.8 365.2 79.8 C 359.3 79.8 355.2 77.9 352.8 74.2 C 350.4 70.5 349.2 64.8 349.2 57 V 47.7 C 349.2 39.7 350.4 33.9 352.9 30.2 S 359.6 24.7 365.5 24.7 C 369.6 24.7 372.8 25.5 375 27 S 378.7 30.9 379.6 34 C 380.5 37.2 380.9 41.6 380.9 47.2 V 56.3 H 360.8 V 56.5 Z M 362.3 34.1 C 361.7 34.9 361.3 36.1 361.1 37.8 S 360.8 42.1 360.8 45.6 V 49.4 H 369.6 V 45.6 C 369.6 42.2 369.5 39.6 369.3 37.8 C 369.1 36 368.6 34.8 368 34.1 C 367.4 33.4 366.4 33 365.2 33 C 363.9 33 362.9 33.4 362.3 34.1 Z&quot;);height:auto;inline-size:auto;overflow-x:visible;overflow-y:visible;perspective-origin:0px 0px;transform-origin:0px 0px;width:auto;"/></svg>